<svg xmlns="http://www.w3.org/2000/svg" version="1.1" xmlns:xlink="http://www.w3.org/1999/xlink" xmlns:svgjs="http://svgjs.dev/svgjs" width="1440" height="560" preserveAspectRatio="none" viewBox="0 0 1440 560"><g mask="url(&quot;#SvgjsMask1230&quot;)" fill="none"><path d="M758 61L983 -164" stroke-width="6" stroke="url(&quot;#SvgjsLinearGradient1231&quot;)" stroke-linecap="round" class="BottomLeft"></path><path d="M832 188L1056 -36" stroke-width="6" stroke="url(&quot;#SvgjsLinearGradient1232&quot;)" stroke-linecap="round" class="TopRight"></path><path d="M871 123L467 527" stroke-width="6" stroke="url(&quot;#SvgjsLinearGradient1231&quot;)" stroke-linecap="round" class="BottomLeft"></path><path d="M903 43L636 310" stroke-width="10" stroke="url(&quot;#SvgjsLinearGradient1231&quot;)" stroke-linecap="round" class="BottomLeft"></path><path d="M796 501L967 330" stroke-width="6" stroke="url(&quot;#SvgjsLinearGradient1231&quot;)" stroke-linecap="round" class="BottomLeft"></path><path d="M1346 208L1127 427" stroke-width="6" stroke="url(&quot;#SvgjsLinearGradient1232&quot;)" stroke-linecap="round" class="TopRight"></path><path d="M659 242L1010 -109" stroke-width="10" stroke="url(&quot;#SvgjsLinearGradient1232&quot;)" stroke-linecap="round" class="TopRight"></path><path d="M360 449L558 251" stroke-width="6" stroke="url(&quot;#SvgjsLinearGradient1231&quot;)" stroke-linecap="round" class="BottomLeft"></path><path d="M79 288L-339 706" stroke-width="8" stroke="url(&quot;#SvgjsLinearGradient1232&quot;)" stroke-linecap="round" class="TopRight"></path><path d="M85 233L-79 397" stroke-width="8" stroke="url(&quot;#SvgjsLinearGradient1231&quot;)" stroke-linecap="round" class="BottomLeft"></path><path d="M986 127L836 277" stroke-width="6" stroke="url(&quot;#SvgjsLinearGradient1232&quot;)" stroke-linecap="round" class="TopRight"></path><path d="M1270 489L1039 720" stroke-width="8" stroke="url(&quot;#SvgjsLinearGradient1232&quot;)" stroke-linecap="round" class="TopRight"></path><path d="M1411 442L1664 189" stroke-width="8" stroke="url(&quot;#SvgjsLinearGradient1231&quot;)" stroke-linecap="round" class="BottomLeft"></path><path d="M1280 335L900 715" stroke-width="8" stroke="url(&quot;#SvgjsLinearGradient1231&quot;)" stroke-linecap="round" class="BottomLeft"></path><path d="M298 222L712 -192" stroke-width="10" stroke="url(&quot;#SvgjsLinearGradient1231&quot;)" stroke-linecap="round" class="BottomLeft"></path><path d="M1372 58L1532 -102" stroke-width="10" stroke="url(&quot;#SvgjsLinearGradient1231&quot;)" stroke-linecap="round" class="BottomLeft"></path><path d="M156 367L570 -47" stroke-width="8" stroke="url(&quot;#SvgjsLinearGradient1232&quot;)" stroke-linecap="round" class="TopRight"></path><path d="M588 106L947 -253" stroke-width="6" stroke="url(&quot;#SvgjsLinearGradient1231&quot;)" stroke-linecap="round" class="BottomLeft"></path><path d="M848 320L606 562" stroke-width="6" stroke="url(&quot;#SvgjsLinearGradient1231&quot;)" stroke-linecap="round" class="BottomLeft"></path><path d="M1359 386L1173 572" stroke-width="6" stroke="url(&quot;#SvgjsLinearGradient1231&quot;)" stroke-linecap="round" class="BottomLeft"></path><path d="M544 191L855 -120" stroke-width="8" stroke="url(&quot;#SvgjsLinearGradient1232&quot;)" stroke-linecap="round" class="TopRight"></path><path d="M85 379L-316 780" stroke-width="10" stroke="url(&quot;#SvgjsLinearGradient1231&quot;)" stroke-linecap="round" class="BottomLeft"></path><path d="M101 160L247 14" stroke-width="6" stroke="url(&quot;#SvgjsLinearGradient1231&quot;)" stroke-linecap="round" class="BottomLeft"></path><path d="M1360 100L1747 -287" stroke-width="10" stroke="url(&quot;#SvgjsLinearGradient1232&quot;)" stroke-linecap="round" class="TopRight"></path><path d="M1003 377L1333 47" stroke-width="10" stroke="url(&quot;#SvgjsLinearGradient1232&quot;)" stroke-linecap="round" class="TopRight"></path><path d="M749 439L1091 97" stroke-width="10" stroke="url(&quot;#SvgjsLinearGradient1231&quot;)" stroke-linecap="round" class="BottomLeft"></path><path d="M944 320L767 497" stroke-width="10" stroke="url(&quot;#SvgjsLinearGradient1231&quot;)" stroke-linecap="round" class="BottomLeft"></path><path d="M240 50L-156 446" stroke-width="10" stroke="url(&quot;#SvgjsLinearGradient1232&quot;)" stroke-linecap="round" class="TopRight"></path><path d="M331 330L-16 677" stroke-width="8" stroke="url(&quot;#SvgjsLinearGradient1232&quot;)" stroke-linecap="round" class="TopRight"></path><path d="M724 510L473 761" stroke-width="8" stroke="url(&quot;#SvgjsLinearGradient1231&quot;)" stroke-linecap="round" class="BottomLeft"></path><path d="M122 515L-101 738" stroke-width="8" stroke="url(&quot;#SvgjsLinearGradient1232&quot;)" stroke-linecap="round" class="TopRight"></path><path d="M1405 388L1050 743" stroke-width="8" stroke="url(&quot;#SvgjsLinearGradient1231&quot;)" stroke-linecap="round" class="BottomLeft"></path><path d="M138 418L-53 609" stroke-width="10" stroke="url(&quot;#SvgjsLinearGradient1232&quot;)" stroke-linecap="round" class="TopRight"></path><path d="M714 382L566 530" stroke-width="8" stroke="url(&quot;#SvgjsLinearGradient1232&quot;)" stroke-linecap="round" class="TopRight"></path><path d="M273 461L584 150" stroke-width="10" stroke="url(&quot;#SvgjsLinearGradient1232&quot;)" stroke-linecap="round" class="TopRight"></path><path d="M104 406L507 3" stroke-width="10" stroke="url(&quot;#SvgjsLinearGradient1232&quot;)" stroke-linecap="round" class="TopRight"></path><path d="M346 208L195 359" stroke-width="8" stroke="url(&quot;#SvgjsLinearGradient1231&quot;)" stroke-linecap="round" class="BottomLeft"></path><path d="M220 97L20 297" stroke-width="6" stroke="url(&quot;#SvgjsLinearGradient1232&quot;)" stroke-linecap="round" class="TopRight"></path><path d="M319 309L645 -17" stroke-width="6" stroke="url(&quot;#SvgjsLinearGradient1232&quot;)" stroke-linecap="round" class="TopRight"></path></g><defs><mask id="SvgjsMask1230"><rect width="1440" height="560" fill="#ffffff"></rect></mask><linearGradient x1="100%" y1="0%" x2="0%" y2="100%" id="SvgjsLinearGradient1231"><stop stop-color="rgba(56, 189, 248, 0)" offset="0"></stop><stop stop-color="rgba(56, 189, 248, 1)" offset="1"></stop></linearGradient><linearGradient x1="0%" y1="100%" x2="100%" y2="0%" id="SvgjsLinearGradient1232"><stop stop-color="rgba(56, 189, 248, 0)" offset="0"></stop><stop stop-color="rgba(56, 189, 248, 1)" offset="1"></stop></linearGradient></defs></svg>